<svg aria-hidden="true" style="position: absolute; width: 0; height: 0; overflow: hidden;" version="1.1" xmlns="http://www.w3.org/2000/svg" xmlns:xlink="http://www.w3.org/1999/xlink">
<defs>
<symbol id="icon-logo" viewBox="0 0 79 32">
<path d="M0 20.706v-20.706h24.264c3.299 0 6.512 1.051 9.173 3.001 1.591 1.166 2.861 2.715 3.693 4.503l2.807 6.034c1.084-2.647 2.443-5.173 4.055-7.536l0.139-0.204c0.463-0.679 0.992-1.31 1.58-1.884l1.196-1.168c0.779-0.762 1.704-1.358 2.719-1.755l0.103-0.040c1.608-0.629 3.32-0.951 5.047-0.951h24.283v20.706h-79.059z"></path>
<path d="M0 24.471h79.059v7.529h-79.059v-7.529z"></path>
</symbol>
<symbol id="icon-menu" viewBox="0 0 32 32">
<path stroke-linejoin="round" stroke-linecap="round" stroke-miterlimit="4" stroke-width="2.2857" d="M4 16h24M4 8h24M12 24h16"></path>
</symbol>
<symbol id="icon-close" viewBox="0 0 32 32">
<path stroke-linejoin="round" stroke-linecap="round" stroke-miterlimit="4" stroke-width="2.2857" d="M24 8l-16 16"></path>
<path stroke-linejoin="round" stroke-linecap="round" stroke-miterlimit="4" stroke-width="2.2857" d="M8 8l16 16"></path>
</symbol>
<symbol id="icon-right" viewBox="0 0 32 32">
<path stroke-linejoin="round" stroke-linecap="round" stroke-miterlimit="4" stroke-width="3" d="M12 8l8 8-8 8"></path>
</symbol>
<symbol id="icon-left" viewBox="0 0 32 32">
<path stroke-linejoin="round" stroke-linecap="round" stroke-miterlimit="4" stroke-width="3" d="M20 24l-8-8 8-8"></path>
</symbol>
<symbol id="icon-arrow" viewBox="0 0 32 32">
<path fill="none" stroke-linejoin="round" stroke-linecap="round" stroke-miterlimit="4" stroke-width="2.4" d="M18.667 22.667l6.667-6.667-6.667-6.667"></path>
<path fill="none" stroke-linejoin="round" stroke-linecap="round" stroke-miterlimit="4" stroke-width="2.4" d="M25.334 16h-18.667"></path>
</symbol>
</defs>
</svg>
