<svg aria-hidden="true" style="position: absolute; width: 0; height: 0; overflow: hidden;" version="1.1" xmlns="http://www.w3.org/2000/svg" xmlns:xlink="http://www.w3.org/1999/xlink">
<defs>
<symbol id="icon-logo" viewBox="0 0 79 32">
<path d="M0 20.706v-20.706h24.264c3.299 0 6.512 1.051 9.173 3.001 1.591 1.166 2.861 2.715 3.693 4.503l2.807 6.034c1.084-2.647 2.443-5.173 4.055-7.536l0.139-0.204c0.463-0.679 0.992-1.31 1.58-1.884l1.196-1.168c0.779-0.762 1.704-1.358 2.719-1.755l0.103-0.040c1.608-0.629 3.32-0.951 5.047-0.951h24.283v20.706h-79.059z"></path>
<path d="M0 24.471h79.059v7.529h-79.059v-7.529z"></path>
</symbol>
<symbol id="icon-menu" viewBox="0 0 32 32">
<path stroke-linejoin="round" stroke-linecap="round" stroke-miterlimit="4" stroke-width="2.2857" d="M4 16h24M4 8h24M12 24h16"></path>
</symbol>
<symbol id="icon-close" viewBox="0 0 32 32">
<path stroke-linejoin="round" stroke-linecap="round" stroke-miterlimit="4" stroke-width="2.2857" d="M24 8l-16 16"></path>
<path stroke-linejoin="round" stroke-linecap="round" stroke-miterlimit="4" stroke-width="2.2857" d="M8 8l16 16"></path>
</symbol>
<symbol id="icon-right" viewBox="0 0 32 32">
<path stroke-linejoin="round" stroke-linecap="round" stroke-miterlimit="4" stroke-width="3" d="M12 8l8 8-8 8"></path>
</symbol>
<symbol id="icon-left" viewBox="0 0 32 32">
<path stroke-linejoin="round" stroke-linecap="round" stroke-miterlimit="4" stroke-width="3" d="M20 24l-8-8 8-8"></path>
</symbol>
<symbol id="icon-arrow" viewBox="0 0 32 32">
<path fill="none" stroke-linejoin="round" stroke-linecap="round" stroke-miterlimit="4" stroke-width="2.4" d="M18.667 22.667l6.667-6.667-6.667-6.667"></path>
<path fill="none" stroke-linejoin="round" stroke-linecap="round" stroke-miterlimit="4" stroke-width="2.4" d="M25.334 16h-18.667"></path>
</symbol>
<symbol id="icon-chart" viewBox="0 0 78 32">
<path fill="#30b94d" style="fill: var(--color1, #30b94d)" opacity="0.2" d="M78.222 1.778l-76.444 10.604v19.618h76.444v-30.222z"></path>
<path fill="#30b94d" style="fill: var(--color1, #30b94d)" d="M75.129 0.284l-72.857 11.779c-0.969 0.157-1.628 1.069-1.471 2.039l0.050 0.308c0.157 0.969 1.069 1.628 2.039 1.471l72.857-11.779c0.969-0.157 1.628-1.069 1.471-2.039l-0.050-0.308c-0.157-0.969-1.069-1.628-2.039-1.471z"></path>
</symbol>
<symbol id="icon-pie-chart" viewBox="0 0 32 32">
<path opacity="0.4" stroke-linejoin="round" stroke-linecap="round" stroke-miterlimit="4" stroke-width="4" d="M22.933 18.667c0.369 0 0.554 0 0.704 0.082 0.123 0.068 0.238 0.195 0.293 0.324 0.067 0.157 0.050 0.324 0.016 0.659-0.174 1.733-0.77 3.404-1.744 4.861-1.172 1.754-2.838 3.121-4.787 3.929s-4.094 1.019-6.163 0.607c-2.069-0.412-3.97-1.427-5.462-2.919s-2.508-3.392-2.919-5.462c-0.412-2.069-0.2-4.214 0.607-6.163s2.175-3.615 3.929-4.787c1.457-0.974 3.128-1.57 4.861-1.744 0.334-0.034 0.502-0.050 0.659 0.016 0.13 0.055 0.257 0.17 0.324 0.293 0.082 0.15 0.082 0.334 0.082 0.704v8.533c0 0.373 0 0.56 0.073 0.703 0.064 0.125 0.166 0.227 0.291 0.291 0.143 0.073 0.329 0.073 0.703 0.073h8.533z"></path>
<path stroke-linejoin="round" stroke-linecap="round" stroke-miterlimit="4" stroke-width="4" d="M18.666 3.733c0-0.369 0-0.554 0.082-0.704 0.068-0.123 0.195-0.238 0.324-0.293 0.157-0.067 0.324-0.050 0.659-0.016 2.438 0.245 4.73 1.323 6.477 3.071s2.826 4.040 3.071 6.478c0.034 0.334 0.050 0.502-0.016 0.659-0.055 0.13-0.17 0.257-0.293 0.324-0.15 0.082-0.334 0.082-0.704 0.082h-8.533c-0.373 0-0.56 0-0.703-0.073-0.125-0.064-0.227-0.166-0.291-0.291-0.073-0.143-0.073-0.329-0.073-0.703v-8.533z"></path>
</symbol>
<symbol id="icon-hourglass" viewBox="0 0 32 32">
<path stroke-linejoin="round" stroke-linecap="round" stroke-miterlimit="4" stroke-width="4" d="M16 16l-5.697-4.748c-0.846-0.705-1.27-1.058-1.574-1.49-0.27-0.383-0.47-0.811-0.591-1.263-0.137-0.511-0.137-1.061-0.137-2.163v-3.669M16 16l5.697-4.748c0.846-0.705 1.27-1.058 1.574-1.49 0.27-0.383 0.47-0.811 0.591-1.263 0.137-0.511 0.137-1.061 0.137-2.163v-3.669M16 16l-5.697 4.748c-0.846 0.705-1.27 1.058-1.574 1.49-0.27 0.383-0.47 0.811-0.591 1.263-0.137 0.51-0.137 1.061-0.137 2.163v3.669M16 16l5.697 4.748c0.846 0.705 1.27 1.058 1.574 1.49 0.27 0.383 0.47 0.811 0.591 1.263 0.137 0.51 0.137 1.061 0.137 2.163v3.669"></path>
<path stroke-linejoin="round" stroke-linecap="round" stroke-miterlimit="4" stroke-width="4" d="M5.334 2.667h21.333M5.334 29.333h21.333"></path>
</symbol>
<symbol id="icon-google" viewBox="0 0 48 48">
<path fill="#fbc02d" d="M43.611,20.083H42V20H24v8h11.303c-1.649,4.657-6.08,8-11.303,8c-6.627,0-12-5.373-12-12	s5.373-12,12-12c3.059,0,5.842,1.154,7.961,3.039l5.657-5.657C34.046,6.053,29.268,4,24,4C12.955,4,4,12.955,4,24s8.955,20,20,20	s20-8.955,20-20C44,22.659,43.862,21.35,43.611,20.083z"></path>
<path fill="#e53935" d="M6.306,14.691l6.571,4.819C14.655,15.108,18.961,12,24,12c3.059,0,5.842,1.154,7.961,3.039	l5.657-5.657C34.046,6.053,29.268,4,24,4C16.318,4,9.656,8.337,6.306,14.691z"></path>
<path fill="#4caf50" d="M24,44c5.166,0,9.86-1.977,13.409-5.192l-6.19-5.238C29.211,35.091,26.715,36,24,36	c-5.202,0-9.619-3.317-11.283-7.946l-6.522,5.025C9.505,39.556,16.227,44,24,44z"></path>
<path fill="#1565c0" d="M43.611,20.083L43.595,20L42,20H24v8h11.303c-0.792,2.237-2.231,4.166-4.087,5.571	c0.001-0.001,0.002-0.001,0.003-0.002l6.19,5.238C36.971,39.205,44,34,44,24C44,22.659,43.862,21.35,43.611,20.083z"></path>
</symbol>
<symbol id="icon-github" viewBox="0 0 64 64">
<path d="M32,10c12.15,0,22,9.85,22,22c0,9.768-6.369,18.045-15.179,20.916c0.002-0.008,0.006-0.021,0.006-0.021	s-1.485-0.696-1.453-1.938c0.035-1.367,0-4.556,0-5.727c0-2.01-1.272-3.434-1.272-3.434s9.977,0.112,9.977-10.533	c0-4.107-2.147-6.245-2.147-6.245s1.128-4.385-0.39-6.245c-1.701-0.184-4.749,1.626-6.05,2.472c0,0-2.062-0.846-5.492-0.846	c-3.43,0-5.492,0.846-5.492,0.846c-1.301-0.846-4.348-2.656-6.05-2.472c-1.518,1.86-0.39,6.245-0.39,6.245s-2.147,2.137-2.147,6.245	c0,10.645,9.977,10.533,9.977,10.533s-1.005,1.136-1.225,2.806c-0.696,0.236-1.721,0.528-2.549,0.528	c-2.165,0-3.812-2.105-4.416-3.078c-0.595-0.96-1.815-1.766-2.953-1.766c-0.749,0-1.115,0.375-1.115,0.803s1.05,0.727,1.743,1.521	c1.461,1.674,1.435,5.438,6.641,5.438c0.565,0,1.719-0.139,2.588-0.256c-0.005,1.185-0.007,2.436,0.012,3.167	c0.031,1.242-1.453,1.938-1.453,1.938s0.004,0.012,0.006,0.021C16.369,50.045,10,41.768,10,32C10,19.85,19.85,10,32,10z"></path></symbol>
</defs>
</svg>
